<svg xmlns="http://www.w3.org/2000/svg" viewBox="0 18.75 83.69000244140625 36.45000076293945" data-asc="0.9052734375" width="83.69000244140625" height="36.45000076293945"><defs/><g><g><g transform="translate(0, 0)"><path d="M0 55.20L0 19.34L4.00 19.34L4.00 22.71Q5.42 20.73 7.20 19.74Q8.98 18.75 11.52 18.75Q14.84 18.75 17.38 20.46Q19.92 22.17 21.22 25.28Q22.51 28.39 22.51 32.10Q22.51 36.08 21.08 39.27Q19.65 42.46 16.93 44.15Q14.21 45.85 11.21 45.85Q9.01 45.85 7.26 44.92Q5.52 43.99 4.39 42.58L4.39 55.20L0 55.20M3.98 32.45Q3.98 37.45 6.01 39.84Q8.03 42.24 10.91 42.24Q13.84 42.24 15.93 39.76Q18.02 37.28 18.02 32.08Q18.02 27.12 15.98 24.66Q13.94 22.19 11.11 22.19Q8.30 22.19 6.14 24.82Q3.98 27.44 3.98 32.45ZM32.59 45.26L24.66 19.34L29.20 19.34L33.33 34.30L34.86 39.87Q34.96 39.45 36.21 34.52L40.33 19.34L44.85 19.34L48.73 34.38L50.02 39.33L51.51 34.33L55.96 19.34L60.23 19.34L52.12 45.26L47.56 45.26L43.43 29.74L42.43 25.32L37.18 45.26L32.59 45.26ZM62.16 37.52L66.50 36.84Q66.87 39.45 68.54 40.84Q70.21 42.24 73.22 42.24Q76.25 42.24 77.71 41.00Q79.17 39.77 79.17 38.11Q79.17 36.62 77.88 35.77Q76.98 35.18 73.39 34.28Q68.55 33.06 66.69 32.17Q64.82 31.27 63.85 29.70Q62.89 28.13 62.89 26.22Q62.89 24.49 63.68 23.01Q64.48 21.53 65.84 20.56Q66.87 19.80 68.64 19.27Q70.41 18.75 72.44 18.75Q75.49 18.75 77.80 19.63Q80.10 20.51 81.20 22.01Q82.30 23.51 82.71 26.03L78.42 26.61Q78.13 24.61 76.72 23.49Q75.32 22.36 72.75 22.36Q69.73 22.36 68.43 23.36Q67.14 24.37 67.14 25.71Q67.14 26.56 67.68 27.25Q68.21 27.95 69.36 28.42Q70.02 28.66 73.24 29.54Q77.91 30.79 79.75 31.58Q81.59 32.37 82.64 33.89Q83.69 35.40 83.69 37.65Q83.69 39.84 82.41 41.78Q81.13 43.73 78.71 44.79Q76.29 45.85 73.24 45.85Q68.19 45.85 65.54 43.75Q62.89 41.65 62.16 37.52Z"/></g><g transform="translate(0, 60.595703125)"><path d=""/></g></g></g></svg>