<?xml version="1.0" encoding="UTF-8"?>
<svg version="1.1" xmlns="http://www.w3.org/2000/svg" width="90" height="90">
<path d="M0 0 C1.43665555 1.03531228 2.85462061 2.09719405 4.25 3.1875 C4.86617188 3.66574219 5.48234375 4.14398438 6.1171875 4.63671875 C12.78616343 10.52023751 18.69997547 21.2255229 19.41113281 30.22705078 C19.72129913 46.15012381 18.42056261 58.18324987 7.14453125 70.484375 C-3.46314748 80.47249019 -15.34502663 83.90417706 -29.64453125 83.49609375 C-41.96432543 82.80319517 -52.08318323 77.33949535 -60.5 68.5 C-70.64285896 56.19397207 -71.62691426 43.4209454 -70.75 28.1875 C-69.21278278 16.93337763 -61.8023677 8.38774886 -53.4453125 1.16796875 C-37.83772627 -10.30021418 -16.11315396 -10.0337336 0 0 Z M-40.765625 6.90234375 C-49.84191126 11.86891298 -55.18302242 18.20600434 -58.86328125 27.9140625 C-61.69524866 38.36863823 -60.04241486 47.84220955 -54.75 57.1875 C-48.50033329 65.66204806 -40.96730314 69.82557798 -30.75 72.1875 C-22.80998693 73.37005514 -16.11890981 71.02364398 -8.75 68.1875 C-8.75 67.8575 -8.75 67.5275 -8.75 67.1875 C-10.09191406 67.14882812 -10.09191406 67.14882812 -11.4609375 67.109375 C-23.02596477 66.56687905 -31.22693197 64.55045279 -39.76953125 56.4765625 C-46.36929481 48.84843341 -48.18909482 40.53288759 -48.08984375 30.70703125 C-47.16758465 21.15581922 -42.48115163 13.78286471 -35.75 7.1875 C-38.59141498 5.89861749 -38.59141498 5.89861749 -40.765625 6.90234375 Z M-13.75 11.1875 C-13.35167969 11.6 -12.95335937 12.0125 -12.54296875 12.4375 C-7.49721245 17.93749713 -5.13834082 22.69243261 -4.3125 30.125 C-4.61380192 36.51511161 -7.26092202 42.15567375 -11.875 46.5625 C-16.00712604 49.80338317 -20.69737649 51.02854813 -25.75 52.1875 C-24.85309052 54.55638173 -24.85309052 54.55638173 -21.625 55.3125 C-12.21305303 57.43777835 -6.35870669 55.05707209 1.5625 50.125 C5.82386789 45.46722579 7.93897324 40.06289349 8.4453125 33.75390625 C8.02407687 26.6052899 4.33753571 21.79691964 0 16.375 C-3.86904812 13.29734808 -8.71927386 11.1875 -13.75 11.1875 Z M-34.75 24.1875 C-36.82274828 28.07390303 -36.91742078 29.60645141 -35.6875 33.875 C-33.58754287 37.46524928 -32.64676495 38.80198357 -28.75 40.1875 C-25.12344931 40.48909955 -22.10207311 40.18855413 -19.125 37.984375 C-16.82292226 35.49917744 -15.79336265 33.45309625 -15.25 30.125 C-15.93856999 26.07965133 -17.1749125 23.36881562 -20.5 20.875 C-26.39593599 19.073464 -30.5327639 19.60878652 -34.75 24.1875 Z " fill="#57BC97" transform="translate(70.75,6.8125)"/>
<path d="M0 0 C6.20527078 1.66152059 13.89659117 4.55805828 17.375 10.25 C17.58125 10.8275 17.7875 11.405 18 12 C18.66 12 19.32 12 20 12 C19.67 12.99 19.34 13.98 19 15 C18.61199219 14.53980469 18.22398438 14.07960938 17.82421875 13.60546875 C15.58194298 11.63207401 13.68182469 11.0950431 10.8125 10.3125 C9.91144531 10.06113281 9.01039062 9.80976563 8.08203125 9.55078125 C7.39496094 9.36902344 6.70789062 9.18726563 6 9 C6.763125 9.721875 7.52625 10.44375 8.3125 11.1875 C13.49727055 16.61342267 15.42297946 21.28404982 15.26953125 28.7890625 C14.41015313 35.83845404 10.82968332 41.1739344 5.34765625 45.5390625 C1.15444579 48.14848132 -3.03663035 49.78782542 -8 50 C-11.81364663 48.51396672 -13.59893835 45.82035337 -15.375 42.1875 C-15.58125 41.465625 -15.7875 40.74375 -16 40 C-16.99 40 -17.98 40 -19 40 C-19 38.68 -19 37.36 -19 36 C-19.66 36 -20.32 36 -21 36 C-21 34.02 -21 32.04 -21 30 C-23.31 30 -25.62 30 -28 30 C-28.33 32.31 -28.66 34.62 -29 37 C-29.33 37 -29.66 37 -30 37 C-30.82869359 25.58244391 -29.02334035 16.40618628 -21.5 7.5 C-19.84375 5.71875 -19.84375 5.71875 -18 4 C-17.23042969 3.278125 -16.46085937 2.55625 -15.66796875 1.8125 C-10.85773958 -1.45535701 -5.59108837 -0.65012655 0 0 Z M-16 21 C-18.07274828 24.88640303 -18.16742078 26.41895141 -16.9375 30.6875 C-14.83754287 34.27774928 -13.89676495 35.61448357 -10 37 C-6.37344931 37.30159955 -3.35207311 37.00105413 -0.375 34.796875 C1.92707774 32.31167744 2.95663735 30.26559625 3.5 26.9375 C2.81143001 22.89215133 1.5750875 20.18131562 -1.75 17.6875 C-7.64593599 15.885964 -11.7827639 16.42128652 -16 21 Z " fill="#D5577D" transform="translate(52,10)"/>
<path d="M0 0 C2.31 0 4.62 0 7 0 C7 1.98 7 3.96 7 6 C7.66 6 8.32 6 9 6 C9 7.32 9 8.64 9 10 C9.99 10 10.98 10 12 10 C13.21875 11.609375 13.21875 11.609375 14.5 13.75 C18.25589639 19.03260739 22.84005434 20.55696734 29 22 C35.87391087 22.94812564 41.86422288 20.37302053 47.3125 16.25 C49 15 49 15 53 15 C52.34 18.3 51.68 21.6 51 25 C50.01 25.33 49.02 25.66 48 26 C47.690625 26.639375 47.38125 27.27875 47.0625 27.9375 C45.74215782 30.50051718 44.5185326 30.7407337 42 32 C40.73195434 34.0335948 40.73195434 34.0335948 40 36 C39.01 35.505 39.01 35.505 38 35 C35.83478765 34.86903958 33.6676012 34.76996309 31.5 34.6875 C19.68685843 33.8557584 11.91165224 29.93386572 4 21 C-0.17519316 15.01399272 -2.10154845 9.3016926 -1 2 C-0.67 1.34 -0.34 0.68 0 0 Z " fill="#3399D7" transform="translate(24,40)"/>
<path d="M0 0 C0.66 0 1.32 0 2 0 C2 1.32 2 2.64 2 4 C2.928125 3.690625 3.85625 3.38125 4.8125 3.0625 C6.875 2.375 8.9375 1.6875 11 1 C11.54365944 8.47531724 10.17313245 14.1399777 5.33984375 20.01953125 C0.47805806 24.76151934 -5.12994535 27.68437728 -12 28 C-15.08337024 26.31816169 -16.04354227 25.64216156 -18 23 C-18.78375 21.96875 -19.5675 20.9375 -20.375 19.875 C-22.87770284 15.21087198 -22.33455206 10.13909136 -22 5 C-21.55720703 5.92232422 -21.55720703 5.92232422 -21.10546875 6.86328125 C-19.70855403 9.56332489 -18.40281897 11.11670945 -16 13 C-12.06588033 14.07294173 -9.94453922 14.41979521 -6.1875 12.75 C-1.9237696 9.33901568 -1.67158478 6.1807969 -1 1 C-0.67 0.67 -0.34 0.34 0 0 Z " fill="#E18436" transform="translate(56,32)"/>
<path d="M0 0 C2.31 0 4.62 0 7 0 C7 1.98 7 3.96 7 6 C7.66 6 8.32 6 9 6 C9 7.32 9 8.64 9 10 C9.99 10 10.98 10 12 10 C13.46484375 11.64453125 13.46484375 11.64453125 14.9375 13.8125 C17.00984186 16.84640849 18.95996144 18.91859131 22 21 C21.34 21 20.68 21 20 21 C19.67 21.99 19.34 22.98 19 24 C19 23.34 19 22.68 19 22 C18.34 22 17.68 22 17 22 C16.67 22.66 16.34 23.32 16 24 C13.69 24 11.38 24 9 24 C8.938125 23.071875 8.938125 23.071875 8.875 22.125 C8.441875 21.073125 8.441875 21.073125 8 20 C7.05125 19.731875 6.1025 19.46375 5.125 19.1875 C2 18 2 18 0.125 14.9375 C-1.38194783 10.71804606 -1.46900961 6.42853305 -1 2 C-0.67 1.34 -0.34 0.68 0 0 Z " fill="#4F8FC7" transform="translate(24,40)"/>
<path d="M0 0 C2.97 0.495 2.97 0.495 6 1 C6 3.31 6 5.62 6 8 C6.66 8 7.32 8 8 8 C7.835 9.03125 7.67 10.0625 7.5 11.125 C6.6972525 17.38869178 6.92034062 23.69805789 7 30 C6.34 30 5.68 30 5 30 C5 28.68 5 27.36 5 26 C4.34 26 3.68 26 3 26 C3 24.02 3 22.04 3 20 C0.69 20 -1.62 20 -4 20 C-4.33 22.31 -4.66 24.62 -5 27 C-5.33 27 -5.66 27 -6 27 C-6.69419367 17.43555392 -5.31270152 10.55470302 -1 2 C-0.67 1.34 -0.34 0.68 0 0 Z " fill="#A86999" transform="translate(28,20)"/>
<path d="M0 0 C0.66 0 1.32 0 2 0 C2 1.32 2 2.64 2 4 C2.928125 3.690625 3.85625 3.38125 4.8125 3.0625 C6.875 2.375 8.9375 1.6875 11 1 C11.1799928 6.21979128 10.97094808 10.07262981 9 15 C3.91913204 15.84681133 -0.84828377 16.09038099 -6 16 C-6 13 -6 13 -4.0625 10.75 C-1.58945803 7.45261071 -1.38894363 5.0450137 -1 1 C-0.67 0.67 -0.34 0.34 0 0 Z " fill="#DD623F" transform="translate(56,32)"/>
<path d="M0 0 C0.99 0.33 1.98 0.66 3 1 C5.02125489 0.99433028 7.04252807 0.94722784 9.0625 0.875 C16.02610774 0.8283687 23.04840888 1.20795435 28.3125 6.1875 C28.869375 6.785625 29.42625 7.38375 30 8 C32.66834966 8.33498301 32.66834966 8.33498301 35 8 C34.773125 8.5775 34.54625 9.155 34.3125 9.75 C33.71552007 12.10982542 33.71552007 12.10982542 35.5 14 C37 16 37 16 36.6875 18.25 C36.460625 18.8275 36.23375 19.405 36 20 C35.67 18.35 35.34 16.7 35 15 C34.34 15 33.68 15 33 15 C32.505 14.278125 32.01 13.55625 31.5 12.8125 C26.62589939 7.32913681 19.39297548 4.42182206 12.15234375 3.7265625 C4.75150731 3.49275722 -0.32269803 4.47448839 -6.85546875 8.00390625 C-7.56316406 8.33261719 -8.27085938 8.66132813 -9 9 C-9.66 8.67 -10.32 8.34 -11 8 C-9.625 6.5 -9.625 6.5 -8 5 C-7.34 5 -6.68 5 -6 5 C-5.67 4.34 -5.34 3.68 -5 3 C-3.66666667 2.66666667 -2.33333333 2.33333333 -1 2 C-0.67 1.34 -0.34 0.68 0 0 Z " fill="#85AC75" transform="translate(37,7)"/>
<path d="M0 0 C-0.03480469 1.06927734 -0.03480469 1.06927734 -0.0703125 2.16015625 C-0.17815674 7.88360394 0.07942689 12.59838814 2 18 C1.34 18 0.68 18 0 18 C0 16.68 0 15.36 0 14 C-0.66 14 -1.32 14 -2 14 C-2 12.02 -2 10.04 -2 8 C-4.31 8 -6.62 8 -9 8 C-9.33 10.31 -9.66 12.62 -10 15 C-10.33 15 -10.66 15 -11 15 C-11 10.71 -11 6.42 -11 2 C-6.78370866 -0.10814567 -4.60209225 -0.17700355 0 0 Z " fill="#8178AC" transform="translate(33,32)"/>
<path d="M0 0 C0.99 0.33 1.98 0.66 3 1 C3 1.66 3 2.32 3 3 C4.69769531 2.98259766 4.69769531 2.98259766 6.4296875 2.96484375 C7.91145669 2.95546546 9.39322765 2.9463653 10.875 2.9375 C11.62136719 2.92912109 12.36773437 2.92074219 13.13671875 2.91210938 C18.7734375 2.88671875 18.7734375 2.88671875 21 4 C21 4.66 21 5.32 21 6 C18.34182672 7.03623704 15.68270341 8.03222101 13 9 C12.13375 9.33 11.2675 9.66 10.375 10 C7.18630531 10 5.58878537 8.58742642 3.29296875 6.48046875 C1.56454147 4.5013934 0.71759512 2.51158291 0 0 Z " fill="#EB9C37" transform="translate(36,50)"/>
<path d="M0 0 C0.33 0 0.66 0 1 0 C1.26618595 6.95041086 0.6120509 13.23514355 -1 20 C-0.34 20 0.32 20 1 20 C1 21.32 1 22.64 1 24 C-1.1875 25.4375 -1.1875 25.4375 -4 27 C-4.845625 27.86625 -5.69125 28.7325 -6.5625 29.625 C-9.00194421 32.00189436 -9.82591016 32.39605056 -13 33 C-12.04578192 31.85073734 -11.08647955 30.70569459 -10.125 29.5625 C-9.59132813 28.92441406 -9.05765625 28.28632812 -8.5078125 27.62890625 C-7 26 -7 26 -5 25 C-4.08968728 22.65613191 -4.08968728 22.65613191 -3.375 19.9375 C-3.11460938 19.01839844 -2.85421875 18.09929688 -2.5859375 17.15234375 C-2.39257812 16.44207031 -2.19921875 15.73179688 -2 15 C-2.99 14.67 -3.98 14.34 -5 14 C-4.72285156 13.24074219 -4.44570312 12.48148438 -4.16015625 11.69921875 C-3.79792969 10.70535156 -3.43570313 9.71148437 -3.0625 8.6875 C-2.70285156 7.70136719 -2.34320313 6.71523438 -1.97265625 5.69921875 C-1.29114035 3.8079437 -0.6357189 1.90715671 0 0 Z " fill="#46B4C0" transform="translate(79,40)"/>
<path d="M0 0 C0.66 0 1.32 0 2 0 C1.34 1.98 0.68 3.96 0 6 C-0.66 6 -1.32 6 -2 6 C-2.2475 6.61875 -2.495 7.2375 -2.75 7.875 C-4.23740369 10.40358627 -5.43678009 10.71839004 -8 12 C-9.26804566 14.0335948 -9.26804566 14.0335948 -10 16 C-10.66 15.67 -11.32 15.34 -12 15 C-14.37123246 14.76970044 -16.74741943 14.58880058 -19.125 14.4375 C-20.40632813 14.35371094 -21.68765625 14.26992187 -23.0078125 14.18359375 C-23.99523438 14.12300781 -24.98265625 14.06242187 -26 14 C-26 13.67 -26 13.34 -26 13 C-20.72 13 -15.44 13 -10 13 C-10 12.34 -10 11.68 -10 11 C-8.34151823 9.98648336 -6.67334039 8.98879205 -5 8 C-2.10513208 5.50719706 -0.54714289 3.83000023 0 0 Z " fill="#39A0C6" transform="translate(74,60)"/>
<path d="M0 0 C0.90878906 0.2165625 0.90878906 0.2165625 1.8359375 0.4375 C10.41276202 2.33759651 18.35657032 2.50320516 27 1 C25.15131598 3.39620368 24.1793363 3.96555956 21.15234375 4.546875 C20.09144531 4.61390625 19.03054687 4.6809375 17.9375 4.75 C16.34228516 4.86601563 16.34228516 4.86601563 14.71484375 4.984375 C12 5 12 5 10 4 C10 4.66 10 5.32 10 6 C8.68 5.67 7.36 5.34 6 5 C6 4.34 6 3.68 6 3 C4.02 2.34 2.04 1.68 0 1 C0 0.67 0 0.34 0 0 Z " fill="#48BAC6" transform="translate(30,76)"/>
<path d="M0 0 C0.28875 0.61617187 0.5775 1.23234375 0.875 1.8671875 C2.21864591 4.4145162 3.90714349 6.03794702 6 8 C6.66 8.66 7.32 9.32 8 10 C7.34 10.66 6.68 11.32 6 12 C5.01 11.67 4.02 11.34 3 11 C3 11.66 3 12.32 3 13 C2.34 13 1.68 13 1 13 C-0.32229189 10.35541621 -0.09677194 8.32238699 -0.0625 5.375 C-0.05347656 4.37210938 -0.04445312 3.36921875 -0.03515625 2.3359375 C-0.02355469 1.56507812 -0.01195312 0.79421875 0 0 Z " fill="#CF7542" transform="translate(34,37)"/>
<path d="M0 0 C2.04136395 -0.05451714 4.08315856 -0.09302485 6.125 -0.125 C7.83042969 -0.15980469 7.83042969 -0.15980469 9.5703125 -0.1953125 C13.05757767 0.00327891 15.7553862 0.7475199 19 2 C14.90996141 3.14982602 10.96822949 3.11094256 6.75 3.0625 C6.00492188 3.05798828 5.25984375 3.05347656 4.4921875 3.04882812 C2.6614236 3.03709246 0.83070127 3.0191585 -1 3 C-0.67 2.01 -0.34 1.02 0 0 Z " fill="#BF6E73" transform="translate(39,10)"/>
<path d="M0 0 C0.33 0 0.66 0 1 0 C1.20413361 5.73842251 1.27141454 10.60539047 -1 16 C-2.32 15.34 -3.64 14.68 -5 14 C-4.72285156 13.24074219 -4.44570312 12.48148438 -4.16015625 11.69921875 C-3.79792969 10.70535156 -3.43570313 9.71148437 -3.0625 8.6875 C-2.70285156 7.70136719 -2.34320313 6.71523438 -1.97265625 5.69921875 C-1.29114035 3.8079437 -0.6357189 1.90715671 0 0 Z " fill="#618BC2" transform="translate(79,40)"/>
<path d="M0 0 C-0.33 4.95 -0.66 9.9 -1 15 C-3 13 -3 13 -3.1953125 10.6171875 C-3.16050781 9.25980469 -3.16050781 9.25980469 -3.125 7.875 C-3.10695313 6.96492188 -3.08890625 6.05484375 -3.0703125 5.1171875 C-3.04710937 4.41851562 -3.02390625 3.71984375 -3 3 C-4.32 2.67 -5.64 2.34 -7 2 C-2.25 0 -2.25 0 0 0 Z " fill="#9C6F97" transform="translate(35,30)"/>
<path d="M0 0 C0.99 0.33 1.98 0.66 3 1 C3 1.99 3 2.98 3 4 C4.98 4 6.96 4 9 4 C9 5.98 9 7.96 9 10 C5.02743602 7.90336901 2.56101511 5.69924405 0 2 C0 1.34 0 0.68 0 0 Z " fill="#D2A459" transform="translate(36,50)"/>
<path d="M0 0 C0.33 0 0.66 0 1 0 C1.05420701 2.56278699 1.09377007 5.12441483 1.125 7.6875 C1.15013672 8.7693457 1.15013672 8.7693457 1.17578125 9.87304688 C1.21391569 14.04876781 0.8789919 17.2494138 -1 21 C-1.33 21 -1.66 21 -2 21 C-1.93941406 20.40574219 -1.87882812 19.81148437 -1.81640625 19.19921875 C-1.16982122 12.80300071 -0.57215654 6.40328386 0 0 Z " fill="#5CB1A9" transform="translate(80,39)"/>
<path d="M0 0 C1.32 0 2.64 0 4 0 C3.67 0.99 3.34 1.98 3 3 C2.01 3.33 1.02 3.66 0 4 C-0.99 5.485 -0.99 5.485 -2 7 C-3.65 6.67 -5.3 6.34 -7 6 C-6.21625 5.38125 -5.4325 4.7625 -4.625 4.125 C-2.03162353 2.10141339 -2.03162353 2.10141339 0 0 Z " fill="#4E92C9" transform="translate(73,55)"/>
<path d="M0 0 C0.33 0.66 0.66 1.32 1 2 C2.97888961 2.72693904 4.97954558 3.39816251 7 4 C7 5.65 7 7.3 7 9 C6.01 9.495 6.01 9.495 5 10 C4.7525 9.38125 4.505 8.7625 4.25 8.125 C2.79371361 5.64931313 1.62187494 5.04874998 -1 4 C-0.67 2.68 -0.34 1.36 0 0 Z " fill="#D15870" transform="translate(49,24)"/>
<path d="M0 0 C0.99 0.66 1.98 1.32 3 2 C2.34 2 1.68 2 1 2 C1 2.99 1 3.98 1 5 C-0.6210103 5.69685498 -2.24696066 6.38222861 -3.875 7.0625 C-4.77992187 7.44535156 -5.68484375 7.82820312 -6.6171875 8.22265625 C-9 9 -9 9 -11 8 C-9.625 6.5 -9.625 6.5 -8 5 C-7.34 5 -6.68 5 -6 5 C-5.67 4.34 -5.34 3.68 -5 3 C-3.66666667 2.66666667 -2.33333333 2.33333333 -1 2 C-0.67 1.34 -0.34 0.68 0 0 Z " fill="#77B872" transform="translate(37,7)"/>
<path d="M0 0 C2.64 0 5.28 0 8 0 C8 1.65 8 3.3 8 5 C5.03 4.01 2.06 3.02 -1 2 C-0.67 1.34 -0.34 0.68 0 0 Z " fill="#43B8C2" transform="translate(25,84)"/>
<path d="M0 0 C0.99 0.33 1.98 0.66 3 1 C3.33 2.65 3.66 4.3 4 6 C4.66 6 5.32 6 6 6 C6 8.64 6 11.28 6 14 C3.74402173 11.74402173 3.03425808 9.95396133 1.875 7 C1.52179688 6.113125 1.16859375 5.22625 0.8046875 4.3125 C0 2 0 2 0 0 Z " fill="#67B48B" transform="translate(74,26)"/>
<path d="M0 0 C-3.34797269 2.23198179 -5.1103797 2.42345786 -9.0625 2.75 C-10.12597656 2.84796875 -11.18945312 2.9459375 -12.28515625 3.046875 C-15 3 -15 3 -17 1 C-14.73052303 0.63724344 -12.45935265 0.28506814 -10.1875 -0.0625 C-8.92292969 -0.25972656 -7.65835938 -0.45695312 -6.35546875 -0.66015625 C-3 -1 -3 -1 0 0 Z " fill="#3FB7C0" transform="translate(57,78)"/>
<path d="M0 0 C0.99 0.99 1.98 1.98 3 3 C0.69 4.65 -1.62 6.3 -4 8 C-4 4.09161134 -2.49432124 2.88405893 0 0 Z " fill="#D1703A" transform="translate(54,40)"/>
<path d="M0 0 C0.66 0 1.32 0 2 0 C2 2.31 2 4.62 2 7 C1.01 7 0.02 7 -1 7 C-1.04254356 5.00045254 -1.04080783 2.99958364 -1 1 C-0.67 0.67 -0.34 0.34 0 0 Z " fill="#DF5A53" transform="translate(56,32)"/>
<path d="M0 0 C0.99 0.33 1.98 0.66 3 1 C3 1.66 3 2.32 3 3 C3.66 3.33 4.32 3.66 5 4 C4.34 4.66 3.68 5.32 3 6 C2.01 6 1.02 6 0 6 C0 4.02 0 2.04 0 0 Z " fill="#4590D1" transform="translate(32,51)"/>
<path d="M0 0 C3.375 -0.125 3.375 -0.125 7 0 C7.66 0.66 8.32 1.32 9 2 C6.36 2.33 3.72 2.66 1 3 C0.67 2.01 0.34 1.02 0 0 Z " fill="#F1AD46" transform="translate(44,56)"/>
<path d="M0 0 C0.33 0 0.66 0 1 0 C1 3.3 1 6.6 1 10 C0.01 9.67 -0.98 9.34 -2 9 C-1.34 6.03 -0.68 3.06 0 0 Z " fill="#6D8FA3" transform="translate(79,40)"/>
<path d="M0 0 C0.66 0.66 1.32 1.32 2 2 C1.67 2.99 1.34 3.98 1 5 C-1.0625 5.6875 -1.0625 5.6875 -3 6 C-2.42655063 3.13275314 -2.1385485 2.1385485 0 0 Z " fill="#CB5D8D" transform="translate(32,16)"/>
</svg>
